<svg width="1198" height="1080" viewBox="0 0 1198 1080" fill="none" xmlns="http://www.w3.org/2000/svg">
<path d="M244.378 601.037C262.336 640.995 282.499 679.957 304.608 717.776C298.112 748.912 294.058 778.562 292.398 806.205C285.769 916.636 317.038 966.35 343.87 981.84C367.493 995.477 415.808 998.827 490.03 957.844C513.207 980.342 536.765 1000.86 560.454 1019.2C462.918 1080.72 368.721 1098.64 299.5 1058.68C191.568 996.375 175.157 811.124 244.378 601.037Z" fill="#131416"></path>
<path d="M341.787 4.72884C403.533 -9.6646 479.888 9.99581 560.46 60.7998C536.748 79.1605 513.17 99.6524 489.973 122.175C431.034 89.8231 387.197 84.9905 361.221 91.3113C337.938 96.9769 310.884 116.507 297.914 178.302C284.442 242.491 291.559 335.671 326.701 444.908C361.437 552.884 419.434 663.528 491.524 758.509C564.042 854.052 643.327 923.923 714.32 961.174C786.88 999.247 831.226 994.22 852.586 982.701C873.121 971.627 900.245 939.32 905.589 860.6C909.944 796.442 898.058 715.419 868.539 626.646H556.849C539.083 597.686 523.497 567.992 508.596 537.782H930.115L932.462 543.005C978.787 659.887 1000.45 773.462 994.126 866.609C987.753 960.495 953.302 1028.42 896.068 1060.06L894.712 1060.8C837.119 1091.85 759.977 1084.81 675.089 1040.79L673.082 1039.74C588.742 995.487 501.507 917.275 424.495 816.942L420.835 812.148C342.934 709.511 280.15 589.974 242.223 472.077C204.295 354.18 193.344 244.51 211.065 160.079C228.786 75.6468 274.191 21.1697 340.237 5.09819L341.787 4.72884Z" fill="#131416"></path>
<path d="M432.825 252.213C589.005 53.7605 780.219 -46.9623 898.501 21.319C967.721 61.2789 999.297 151.807 994.783 267.024C967.05 255.682 937.501 245.541 906.425 236.721C904.811 151.96 877.753 111.798 854.131 98.1609C827.298 82.671 768.603 80.4517 676.269 141.408C638.102 166.604 598.463 200.188 559.477 241.183C572.542 240.757 585.72 240.539 599 240.539C929.819 240.539 1198 374.612 1198 540C1198 619.919 1135.38 692.525 1033.33 746.225C1029.28 716.539 1023.29 685.883 1015.39 654.565C1088 610.785 1109.26 567.274 1109.26 540C1109.26 509.02 1081.83 457.087 982.871 407.611C889.215 360.789 753.62 329.268 599 329.268C556.23 329.268 514.916 331.681 475.542 336.161C473.436 336.401 471.335 336.645 469.24 336.897C430.754 341.516 394.167 348.115 359.939 356.368C383 319.274 407.449 284.455 432.821 252.214L432.825 252.213Z" fill="#131416"></path>
<path d="M164.672 333.774C168.716 363.46 174.708 394.117 182.606 425.435C109.996 469.214 88.7407 512.726 88.7407 540C88.7408 567.273 109.997 610.784 182.605 654.563C174.707 685.881 168.716 716.538 164.672 746.224C62.6221 692.524 4.42091e-05 619.919 0 540C0 460.081 62.6216 387.474 164.672 333.774Z" fill="#131416"></path>
</svg>