<svg width="286" height="37" viewBox="0 0 286 37" fill="none" xmlns="http://www.w3.org/2000/svg">
<g clip-path="url(#clip0_4837_974)">
<path d="M41.6491 16.0476L39.3 15.3665L35.5566 16.9751L36.5796 19.7556L41.6491 16.0476Z" fill="white"/>
<path d="M38.5581 15.2048L33.8516 14.2356L35.3606 16.5779L38.5581 15.2048Z" fill="white"/>
<path d="M45.4641 14.9525L46.186 13.3452L40.6754 13.0376L39.6211 15.003L42.1524 15.738L45.4641 14.9525Z" fill="white"/>
<path d="M40.254 12.6341L40.0263 11.1123L36.5977 11.7773L37.6954 13.0117L40.254 12.6341Z" fill="white"/>
<path d="M38.0391 13.3958L39.2286 14.7352L40.1075 13.0916L38.0391 13.3958Z" fill="white"/>
<path d="M33.1822 14.0689L27.5566 10.2175L29.4191 16.9537L34.853 16.6656L33.1822 14.0689Z" fill="white"/>
<path d="M33.4764 13.724L38.6336 14.7821L26.9102 1.59521L27.3962 9.5577L33.4764 13.724Z" fill="white"/>
<path d="M49.4102 15.1501L50.4957 15.0693L50.5079 14.5046L49.5719 14.7658L49.4102 15.1501Z" fill="white"/>
<path d="M49.5664 14.3166L50.3005 14.1079L48.0757 12.2502L46.9766 13.1199L49.5664 14.3166Z" fill="white"/>
<path d="M26.6934 23.5712L27.6287 24.2126L30.0091 20.6231L29.082 17.5L26.6934 23.5712Z" fill="white"/>
<path d="M49.1209 14.6077L47.8613 14.0269L48.9509 15.0042L49.1209 14.6077Z" fill="white"/>
<path d="M34.5531 17.1165L29.5488 17.3776L30.4026 20.2624L34.5531 17.1165Z" fill="white"/>
<path d="M46.456 12.9276L47.5015 12.097L40.5117 11.1123L40.7394 12.6119L46.456 12.9276Z" fill="white"/>
<path d="M46.6259 13.5354L45.957 15.0242L48.1696 15.9127L48.7079 15.4012L46.6259 13.5354Z" fill="white"/>
<path d="M48.5879 16.1432L49.9752 17.0788L49.0127 15.7434L48.5879 16.1432Z" fill="white"/>
<path d="M30.6973 20.6044L35.8837 23.0356L36.2167 20.14L35.1462 17.231L30.6973 20.6044Z" fill="white"/>
<path d="M36.6951 20.2326L36.3926 22.8374L42.1758 18.1097L41.9569 16.3826L36.6951 20.2326Z" fill="white"/>
<path d="M50.7559 17.6264L50.8728 18.3338L51.3017 17.5066L50.7559 17.6264Z" fill="white"/>
<path d="M50.5721 15.4941L49.4648 15.5789L50.6333 17.1943L51.2403 17.0604L50.5721 15.4941Z" fill="white"/>
<path d="M42.416 16.1213L42.6396 17.8753L47.6045 16.1556L45.6264 15.3594L42.416 16.1213Z" fill="white"/>
<path d="M27.0008 10.0088L16.1094 16.0099L28.9163 16.9368L27.0008 10.0088Z" fill="white"/>
<path d="M28.0859 24.3723L29.3754 24.5567L35.3904 23.2947L30.3549 20.9329L28.0859 24.3723Z" fill="white"/>
<path d="M26.464 23.9617L22.6758 29.5018L24.8013 31.871L27.4136 24.6152L26.464 23.9617Z" fill="white"/>
<path d="M29.7174 32.344L31.6255 30.6936L29.4863 24.9509L29.7174 32.344Z" fill="white"/>
<path d="M27.8732 24.769L25.1699 32.2732L27.1908 34.532L29.2416 32.7551L29.0016 24.938L27.8732 24.769Z" fill="white"/>
<path d="M26.8916 9.3578L18.0469 6.67022V5.70435H19.9631V4.2155H18.3099V2.57993H19.8237V1.59521H26.424L26.8916 9.3578ZM22.1375 2.80002H21.1492V3.66964H22.1375V2.80002ZM24.6825 4.29223H23.5541V4.96531H22.2898V6.36531H23.8818V5.28031H24.6825V4.29223Z" fill="white"/>
<path d="M12.399 5.62419H11.1211V7.2241H12.9401V6.18958H14.0956V4.26996H12.709V3.46631H11.5269V4.50958H12.3983L12.399 5.62419Z" fill="white"/>
<path d="M11.1643 8.89819H9.23047V10.6024H11.1643V8.89819Z" fill="white"/>
<path d="M5.61946 5.70117H4.02344V7.10453H5.61946V5.70117Z" fill="white"/>
<path d="M13.4466 11.3884H11.7188V12.9082H13.4466V11.3884Z" fill="white"/>
<path d="M3.58821 2.00586H1.99219V3.40922H3.58821V2.00586Z" fill="white"/>
<path d="M4.3271 0.201904H3.30273V1.10248H4.3271V0.201904Z" fill="white"/>
<path d="M1.06173 1.13086H0.339844V1.76557H1.06173V1.13086Z" fill="white"/>
<path d="M14.3086 2.39616V3.66626H15.7524V2.89357H17.6108V0.969238H15.424V2.39616H14.3086Z" fill="white"/>
<path d="M13.7746 0.954423H14.436V0H13.3552V0.642115H12.2969V1.93846H13.7746V0.954423Z" fill="white"/>
<path d="M7.68587 8.05395H9.89502V6.11147H8.12362V5.22974H6.67578V6.50387H7.68587V8.05395Z" fill="white"/>
<path d="M17.3657 4.76538H15.2266V6.64663H17.3657V4.76538Z" fill="white"/>
<path d="M9.0565 0.20874H7.98047V1.15509H9.0565V0.20874Z" fill="white"/>
<path d="M6.67573 0.686523H5.28906V1.90547H6.67573V0.686523Z" fill="white"/>
<path d="M9.4188 5.22791H10.6043V3.93964H9.80353V3.18243H11.1725V1.55493H9.15642V2.77791H7.98047V4.29032H9.4188V5.22791Z" fill="white"/>
<path d="M6.6771 2.83374H4.82617V4.46124H6.6771V2.83374Z" fill="white"/>
<path d="M8.16987 9.14038H7.07617V10.0982H8.16987V9.14038Z" fill="white"/>
<path d="M15.4024 15.9033L13.8764 14.399H12.9839V13.5193L12.9486 13.4843H15.9557V12.0721H16.5002V11.1231H15.4201V11.8218H14.5623V10.6762H13.3646V9.65983H12.0391V8.0606H13.5658V7.11426H15.0075V8.38705H13.8526V9.17522H15.2053V10.0139H17.5198V8.99753H16.6008V7.69849H18.0486V7.12839L26.5923 9.72647L15.4024 15.9033ZM21.0864 10.2481H22.5125V8.99416H21.0864V10.2481ZM17.2139 13.0495H18.3865V12.3831H19.7697V10.872H18.0514V12.0183H17.2112L17.2139 13.0495Z" fill="white"/>
<path d="M50.6351 29.1337H44.9443L43.7758 30.7949H41.668L46.4343 24.1206C46.5702 23.9254 46.7456 23.7538 46.9502 23.6125C47.2065 23.465 47.5103 23.395 47.8162 23.4125C48.1187 23.3957 48.4198 23.4664 48.6727 23.6125C48.8786 23.7525 49.0533 23.9248 49.1893 24.1206L53.9359 30.7949H51.8165L50.6351 29.1337ZM45.8008 27.8939H49.7732L47.7856 25.0434L45.8008 27.8939Z" fill="white"/>
<path d="M59.091 30.8024C58.5861 30.8119 58.0815 30.7679 57.586 30.6712C57.2363 30.6079 56.9068 30.4629 56.6249 30.2485C56.3815 30.0505 56.203 29.7853 56.1124 29.4866C56.004 29.109 55.954 28.7173 55.9642 28.3248V23.5776H57.7832V28.2589C57.7791 28.4393 57.8015 28.619 57.8491 28.7947C57.8878 28.9313 57.9701 29.0558 58.0856 29.1534C58.2134 29.2571 58.3711 29.3284 58.5411 29.3607C58.7756 29.4078 59.0162 29.428 59.2568 29.4233H64.1346V30.8004L59.091 30.8024Z" fill="white"/>
<path d="M68.6243 28.7384V30.8041H66.791V23.5793H73.3695C73.863 23.5705 74.3551 23.6109 74.8391 23.6991C75.1899 23.7624 75.5168 23.901 75.7921 24.1029C76.0368 24.2975 76.2149 24.5492 76.304 24.8299C76.4114 25.1805 76.4617 25.5433 76.4528 25.9068V26.5301C76.463 26.892 76.4141 27.2531 76.308 27.5996C76.2237 27.8641 76.0497 28.101 75.8098 28.2774C75.527 28.4676 75.2035 28.5907 74.8649 28.6368C74.3715 28.712 73.8725 28.7456 73.3736 28.7371L68.6243 28.7384ZM74.625 25.9721C74.625 25.5837 74.5285 25.3179 74.3409 25.1805C74.1526 25.0426 73.8107 24.9685 73.3206 24.9685H68.6236V27.4374H73.3423C73.8249 27.4374 74.1594 27.3721 74.3449 27.2415C74.5298 27.1109 74.6168 26.8531 74.6168 26.4722V25.9721H74.625Z" fill="white"/>
<path d="M87.0743 30.8024V27.9217H81.0559V30.8024H79.2227V23.5776H81.0559V26.521H87.0784V23.5776H88.9049V30.8024H87.0743Z" fill="white"/>
<path d="M100.354 29.1397H94.667L93.4999 30.8009H91.3906L96.157 24.1267C96.2929 23.9315 96.4683 23.7598 96.6729 23.6192C96.8727 23.4845 97.1623 23.4192 97.5389 23.4192C97.8413 23.4024 98.1418 23.4731 98.3953 23.6192C98.6013 23.7592 98.776 23.9315 98.9119 24.1267L103.657 30.8009H101.544L100.354 29.1397ZM95.5248 27.9006H99.5013L97.5144 25.05L95.5248 27.9006Z" fill="white"/>
</g>
<line x1="120" y1="2.18557e-08" x2="120" y2="35" stroke="white" stroke-opacity="0.5"/>
<path d="M135.391 3.60938V2.35938H144.125V3.60938H140.469V14H139.062V3.60938H135.391ZM146.703 8.75V14H145.375V2.35938H146.703V6.64062H146.828C147.031 6.1875 147.336 5.82812 147.742 5.5625C148.154 5.29167 148.703 5.15625 149.391 5.15625C149.984 5.15625 150.505 5.27604 150.953 5.51562C151.401 5.75 151.75 6.11198 152 6.60156C152.25 7.08594 152.375 7.70312 152.375 8.45312V14H151.031V8.54688C151.031 7.84896 150.852 7.3099 150.492 6.92969C150.133 6.54948 149.635 6.35938 149 6.35938C148.557 6.35938 148.164 6.45312 147.82 6.64062C147.477 6.82812 147.203 7.09896 147 7.45312C146.802 7.80729 146.703 8.23958 146.703 8.75ZM157.75 14.1875C156.911 14.1875 156.185 14 155.57 13.625C154.961 13.25 154.492 12.7266 154.164 12.0547C153.836 11.3776 153.672 10.5938 153.672 9.70312C153.672 8.80729 153.833 8.01823 154.156 7.33594C154.479 6.65365 154.932 6.11979 155.516 5.73438C156.104 5.34896 156.792 5.15625 157.578 5.15625C158.031 5.15625 158.482 5.23177 158.93 5.38281C159.378 5.53385 159.784 5.77865 160.148 6.11719C160.518 6.45573 160.812 6.90365 161.031 7.46094C161.25 8.01823 161.359 8.70312 161.359 9.51562V10.0938H154.625V8.9375H160.633L160.016 9.375C160.016 8.79167 159.924 8.27344 159.742 7.82031C159.56 7.36719 159.286 7.01042 158.922 6.75C158.562 6.48958 158.115 6.35938 157.578 6.35938C157.042 6.35938 156.581 6.49219 156.195 6.75781C155.815 7.01823 155.523 7.35938 155.32 7.78125C155.117 8.20312 155.016 8.65625 155.016 9.14062V9.90625C155.016 10.5677 155.13 11.1276 155.359 11.5859C155.589 12.0443 155.909 12.3932 156.32 12.6328C156.732 12.8672 157.208 12.9844 157.75 12.9844C158.099 12.9844 158.417 12.9349 158.703 12.8359C158.99 12.7318 159.237 12.5781 159.445 12.375C159.654 12.1667 159.812 11.9115 159.922 11.6094L161.219 11.9844C161.083 12.4219 160.854 12.8073 160.531 13.1406C160.214 13.4688 159.818 13.7266 159.344 13.9141C158.87 14.0964 158.339 14.1875 157.75 14.1875ZM171.281 14.1562C170.25 14.1562 169.344 13.9141 168.562 13.4297C167.786 12.9453 167.18 12.2578 166.742 11.3672C166.31 10.4714 166.094 9.41146 166.094 8.1875C166.094 6.95833 166.31 5.89583 166.742 5C167.18 4.10417 167.781 3.41406 168.547 2.92969C169.312 2.44531 170.193 2.20312 171.188 2.20312C171.802 2.20312 172.375 2.29427 172.906 2.47656C173.438 2.65885 173.911 2.91927 174.328 3.25781C174.745 3.59635 175.091 3.9974 175.367 4.46094C175.648 4.92448 175.844 5.4375 175.953 6H174.5C174.375 5.61458 174.211 5.27083 174.008 4.96875C173.81 4.66146 173.57 4.40104 173.289 4.1875C173.008 3.96875 172.693 3.80208 172.344 3.6875C171.995 3.57292 171.609 3.51562 171.188 3.51562C170.5 3.51562 169.872 3.69531 169.305 4.05469C168.742 4.40885 168.292 4.9349 167.953 5.63281C167.62 6.32552 167.453 7.17708 167.453 8.1875C167.453 9.19271 167.622 10.0417 167.961 10.7344C168.299 11.4271 168.758 11.9531 169.336 12.3125C169.914 12.6667 170.562 12.8438 171.281 12.8438C171.948 12.8438 172.534 12.7005 173.039 12.4141C173.544 12.1276 173.94 11.724 174.227 11.2031C174.513 10.6771 174.656 10.0573 174.656 9.34375L175.094 9.4375H171.594V8.1875H176.031V9.4375C176.031 10.3958 175.828 11.2292 175.422 11.9375C175.016 12.6406 174.453 13.1875 173.734 13.5781C173.021 13.9635 172.203 14.1562 171.281 14.1562ZM178.062 14V5.26562H179.391V14H178.062ZM178.734 3.8125C178.474 3.8125 178.25 3.72396 178.062 3.54688C177.875 3.36979 177.781 3.15625 177.781 2.90625C177.781 2.65625 177.875 2.44271 178.062 2.26562C178.25 2.08854 178.474 2 178.734 2C178.995 2 179.219 2.08854 179.406 2.26562C179.594 2.44271 179.688 2.65625 179.688 2.90625C179.688 3.15625 179.594 3.36979 179.406 3.54688C179.219 3.72396 178.995 3.8125 178.734 3.8125ZM184.984 5.26562V6.40625H180.281V5.26562H184.984ZM181.688 14V4.0625C181.688 3.5625 181.805 3.14583 182.039 2.8125C182.279 2.47917 182.586 2.22917 182.961 2.0625C183.336 1.89583 183.729 1.8125 184.141 1.8125C184.474 1.8125 184.745 1.84115 184.953 1.89844C185.167 1.95052 185.323 2 185.422 2.04688L185.031 3.20312C184.964 3.17708 184.87 3.14844 184.75 3.11719C184.635 3.08073 184.479 3.0625 184.281 3.0625C183.839 3.0625 183.516 3.17708 183.312 3.40625C183.115 3.63021 183.016 3.95833 183.016 4.39062V14H181.688ZM189.906 5.26562V6.40625H185.391V5.26562H189.906ZM186.703 3.1875H188.031V11.5C188.031 11.9531 188.125 12.2865 188.312 12.5C188.5 12.7083 188.797 12.8125 189.203 12.8125C189.292 12.8125 189.383 12.8073 189.477 12.7969C189.576 12.7865 189.682 12.7708 189.797 12.75L190.078 13.9531C189.953 14 189.799 14.0365 189.617 14.0625C189.44 14.0938 189.26 14.1094 189.078 14.1094C188.375 14.1094 187.802 13.901 187.359 13.4844C186.922 13.0677 186.703 12.526 186.703 11.8594V3.1875ZM194.766 14.1875C193.927 14.1875 193.201 14 192.586 13.625C191.977 13.25 191.508 12.7266 191.18 12.0547C190.852 11.3776 190.688 10.5938 190.688 9.70312C190.688 8.80729 190.849 8.01823 191.172 7.33594C191.495 6.65365 191.948 6.11979 192.531 5.73438C193.12 5.34896 193.807 5.15625 194.594 5.15625C195.047 5.15625 195.497 5.23177 195.945 5.38281C196.393 5.53385 196.799 5.77865 197.164 6.11719C197.534 6.45573 197.828 6.90365 198.047 7.46094C198.266 8.01823 198.375 8.70312 198.375 9.51562V10.0938H191.641V8.9375H197.648L197.031 9.375C197.031 8.79167 196.94 8.27344 196.758 7.82031C196.576 7.36719 196.302 7.01042 195.938 6.75C195.578 6.48958 195.13 6.35938 194.594 6.35938C194.057 6.35938 193.596 6.49219 193.211 6.75781C192.831 7.01823 192.539 7.35938 192.336 7.78125C192.133 8.20312 192.031 8.65625 192.031 9.14062V9.90625C192.031 10.5677 192.146 11.1276 192.375 11.5859C192.604 12.0443 192.924 12.3932 193.336 12.6328C193.747 12.8672 194.224 12.9844 194.766 12.9844C195.115 12.9844 195.432 12.9349 195.719 12.8359C196.005 12.7318 196.253 12.5781 196.461 12.375C196.669 12.1667 196.828 11.9115 196.938 11.6094L198.234 11.9844C198.099 12.4219 197.87 12.8073 197.547 13.1406C197.229 13.4688 196.833 13.7266 196.359 13.9141C195.885 14.0964 195.354 14.1875 194.766 14.1875ZM202.922 14.1875C202.193 14.1875 201.549 14.0026 200.992 13.6328C200.435 13.263 200 12.7396 199.688 12.0625C199.375 11.3802 199.219 10.5781 199.219 9.65625C199.219 8.73958 199.375 7.94531 199.688 7.27344C200.005 6.59635 200.443 6.07552 201 5.71094C201.557 5.34115 202.203 5.15625 202.938 5.15625C203.51 5.15625 203.961 5.25 204.289 5.4375C204.622 5.625 204.878 5.83854 205.055 6.07812C205.232 6.3125 205.37 6.50521 205.469 6.65625H205.578V2.35938H206.906V14H205.625V12.6562H205.469C205.37 12.8125 205.229 13.013 205.047 13.2578C204.865 13.4974 204.604 13.7135 204.266 13.9062C203.932 14.0938 203.484 14.1875 202.922 14.1875ZM203.094 12.9844C203.635 12.9844 204.091 12.8438 204.461 12.5625C204.831 12.276 205.112 11.8828 205.305 11.3828C205.497 10.8776 205.594 10.2969 205.594 9.64062C205.594 8.98438 205.5 8.41146 205.312 7.92188C205.125 7.42708 204.844 7.04427 204.469 6.77344C204.099 6.4974 203.641 6.35938 203.094 6.35938C202.531 6.35938 202.062 6.50521 201.688 6.79688C201.312 7.08854 201.031 7.48177 200.844 7.97656C200.656 8.47135 200.562 9.02604 200.562 9.64062C200.562 10.2604 200.656 10.8229 200.844 11.3281C201.036 11.8333 201.32 12.237 201.695 12.5391C202.07 12.8359 202.536 12.9844 203.094 12.9844ZM213.031 14H211.547L215.828 2.35938H217.281L221.547 14H220.078L216.594 4.20312H216.5L213.031 14ZM213.578 9.45312H219.531V10.7031H213.578V9.45312ZM225.969 14.1875C225.156 14.1875 224.453 13.9948 223.859 13.6094C223.271 13.2188 222.815 12.6849 222.492 12.0078C222.174 11.3307 222.016 10.5573 222.016 9.6875C222.016 8.79688 222.18 8.01302 222.508 7.33594C222.836 6.65365 223.294 6.11979 223.883 5.73438C224.477 5.34896 225.167 5.15625 225.953 5.15625C226.568 5.15625 227.12 5.27083 227.609 5.5C228.104 5.72396 228.508 6.04167 228.82 6.45312C229.138 6.86458 229.333 7.34375 229.406 7.89062H228.062C227.995 7.625 227.872 7.375 227.695 7.14062C227.518 6.90625 227.284 6.71875 226.992 6.57812C226.706 6.43229 226.365 6.35938 225.969 6.35938C225.448 6.35938 224.992 6.49479 224.602 6.76562C224.211 7.03646 223.906 7.41927 223.688 7.91406C223.469 8.40365 223.359 8.97917 223.359 9.64062C223.359 10.3125 223.466 10.901 223.68 11.4062C223.893 11.9062 224.195 12.2943 224.586 12.5703C224.982 12.8464 225.443 12.9844 225.969 12.9844C226.495 12.9844 226.945 12.849 227.32 12.5781C227.695 12.3021 227.943 11.9271 228.062 11.4531H229.406C229.333 11.9688 229.146 12.4323 228.844 12.8438C228.547 13.2552 228.154 13.5833 227.664 13.8281C227.18 14.0677 226.615 14.1875 225.969 14.1875ZM233.234 14.2031C232.682 14.2031 232.18 14.099 231.727 13.8906C231.273 13.6771 230.914 13.3698 230.648 12.9688C230.383 12.5677 230.25 12.0833 230.25 11.5156C230.25 11.0156 230.349 10.612 230.547 10.3047C230.745 9.99219 231.008 9.7474 231.336 9.57031C231.669 9.38802 232.034 9.2526 232.43 9.16406C232.831 9.07552 233.234 9.00521 233.641 8.95312C234.172 8.88542 234.602 8.83333 234.93 8.79688C235.263 8.76042 235.505 8.69792 235.656 8.60938C235.812 8.52083 235.891 8.36979 235.891 8.15625V8.10938C235.891 7.55208 235.737 7.11979 235.43 6.8125C235.128 6.5 234.667 6.34375 234.047 6.34375C233.411 6.34375 232.911 6.48438 232.547 6.76562C232.182 7.04167 231.927 7.33854 231.781 7.65625L230.5 7.20312C230.729 6.67188 231.034 6.25781 231.414 5.96094C231.799 5.66406 232.216 5.45573 232.664 5.33594C233.117 5.21615 233.562 5.15625 234 5.15625C234.281 5.15625 234.604 5.1901 234.969 5.25781C235.333 5.32031 235.688 5.45573 236.031 5.66406C236.38 5.86719 236.667 6.17708 236.891 6.59375C237.12 7.00521 237.234 7.55729 237.234 8.25V14H235.891V12.8125H235.828C235.74 13 235.589 13.2031 235.375 13.4219C235.161 13.6354 234.878 13.8203 234.523 13.9766C234.174 14.1276 233.745 14.2031 233.234 14.2031ZM233.438 13C233.969 13 234.417 12.8958 234.781 12.6875C235.146 12.4792 235.422 12.2109 235.609 11.8828C235.797 11.5495 235.891 11.2031 235.891 10.8438V9.60938C235.833 9.67708 235.708 9.73958 235.516 9.79688C235.328 9.84896 235.109 9.89583 234.859 9.9375C234.615 9.97917 234.375 10.0156 234.141 10.0469C233.906 10.0729 233.719 10.0938 233.578 10.1094C233.229 10.1562 232.904 10.2318 232.602 10.3359C232.299 10.4349 232.055 10.5833 231.867 10.7812C231.685 10.9792 231.594 11.25 231.594 11.5938C231.594 12.0573 231.766 12.4089 232.109 12.6484C232.458 12.8828 232.901 13 233.438 13ZM242.234 14.1875C241.505 14.1875 240.862 14.0026 240.305 13.6328C239.747 13.263 239.312 12.7396 239 12.0625C238.688 11.3802 238.531 10.5781 238.531 9.65625C238.531 8.73958 238.688 7.94531 239 7.27344C239.318 6.59635 239.755 6.07552 240.312 5.71094C240.87 5.34115 241.516 5.15625 242.25 5.15625C242.823 5.15625 243.273 5.25 243.602 5.4375C243.935 5.625 244.19 5.83854 244.367 6.07812C244.544 6.3125 244.682 6.50521 244.781 6.65625H244.891V2.35938H246.219V14H244.938V12.6562H244.781C244.682 12.8125 244.542 13.013 244.359 13.2578C244.177 13.4974 243.917 13.7135 243.578 13.9062C243.245 14.0938 242.797 14.1875 242.234 14.1875ZM242.406 12.9844C242.948 12.9844 243.404 12.8438 243.773 12.5625C244.143 12.276 244.424 11.8828 244.617 11.3828C244.81 10.8776 244.906 10.2969 244.906 9.64062C244.906 8.98438 244.812 8.41146 244.625 7.92188C244.438 7.42708 244.156 7.04427 243.781 6.77344C243.411 6.4974 242.953 6.35938 242.406 6.35938C241.844 6.35938 241.375 6.50521 241 6.79688C240.625 7.08854 240.344 7.48177 240.156 7.97656C239.969 8.47135 239.875 9.02604 239.875 9.64062C239.875 10.2604 239.969 10.8229 240.156 11.3281C240.349 11.8333 240.633 12.237 241.008 12.5391C241.383 12.8359 241.849 12.9844 242.406 12.9844ZM251.594 14.1875C250.755 14.1875 250.029 14 249.414 13.625C248.805 13.25 248.336 12.7266 248.008 12.0547C247.68 11.3776 247.516 10.5938 247.516 9.70312C247.516 8.80729 247.677 8.01823 248 7.33594C248.323 6.65365 248.776 6.11979 249.359 5.73438C249.948 5.34896 250.635 5.15625 251.422 5.15625C251.875 5.15625 252.326 5.23177 252.773 5.38281C253.221 5.53385 253.628 5.77865 253.992 6.11719C254.362 6.45573 254.656 6.90365 254.875 7.46094C255.094 8.01823 255.203 8.70312 255.203 9.51562V10.0938H248.469V8.9375H254.477L253.859 9.375C253.859 8.79167 253.768 8.27344 253.586 7.82031C253.404 7.36719 253.13 7.01042 252.766 6.75C252.406 6.48958 251.958 6.35938 251.422 6.35938C250.885 6.35938 250.424 6.49219 250.039 6.75781C249.659 7.01823 249.367 7.35938 249.164 7.78125C248.961 8.20312 248.859 8.65625 248.859 9.14062V9.90625C248.859 10.5677 248.974 11.1276 249.203 11.5859C249.432 12.0443 249.753 12.3932 250.164 12.6328C250.576 12.8672 251.052 12.9844 251.594 12.9844C251.943 12.9844 252.26 12.9349 252.547 12.8359C252.833 12.7318 253.081 12.5781 253.289 12.375C253.497 12.1667 253.656 11.9115 253.766 11.6094L255.062 11.9844C254.927 12.4219 254.698 12.8073 254.375 13.1406C254.057 13.4688 253.661 13.7266 253.188 13.9141C252.714 14.0964 252.182 14.1875 251.594 14.1875ZM256.469 14V5.26562H257.75V6.64062H257.875C258.057 6.17188 258.352 5.80729 258.758 5.54688C259.164 5.28646 259.651 5.15625 260.219 5.15625C260.792 5.15625 261.268 5.28646 261.648 5.54688C262.034 5.80729 262.333 6.17188 262.547 6.64062H262.641C262.87 6.1875 263.206 5.82812 263.648 5.5625C264.096 5.29167 264.63 5.15625 265.25 5.15625C266.031 5.15625 266.672 5.40104 267.172 5.89062C267.672 6.375 267.922 7.13021 267.922 8.15625V14H266.578V8.15625C266.578 7.51042 266.401 7.04948 266.047 6.77344C265.693 6.4974 265.276 6.35938 264.797 6.35938C264.188 6.35938 263.714 6.54688 263.375 6.92188C263.042 7.29167 262.875 7.75521 262.875 8.3125V14H261.5V8.01562C261.5 7.52083 261.341 7.1224 261.023 6.82031C260.706 6.51302 260.292 6.35938 259.781 6.35938C259.432 6.35938 259.107 6.45312 258.805 6.64062C258.503 6.82812 258.258 7.08594 258.07 7.41406C257.888 7.74219 257.797 8.11979 257.797 8.54688V14H256.469ZM270.188 17.2656C269.958 17.2708 269.755 17.2552 269.578 17.2188C269.401 17.1823 269.276 17.1458 269.203 17.1094L269.547 15.9375L269.68 15.9688C270.128 16.0729 270.503 16.0495 270.805 15.8984C271.112 15.7526 271.38 15.3646 271.609 14.7344L271.859 14.0469L268.641 5.26562H270.094L272.5 12.2344H272.594L275 5.26562H276.453L272.75 15.2656C272.583 15.7188 272.378 16.0938 272.133 16.3906C271.888 16.6875 271.604 16.9062 271.281 17.0469C270.958 17.1927 270.594 17.2656 270.188 17.2656ZM139.391 33.1875C138.604 33.1875 137.914 33 137.32 32.625C136.727 32.25 136.263 31.724 135.93 31.0469C135.602 30.3698 135.438 29.5833 135.438 28.6875C135.438 27.776 135.602 26.9818 135.93 26.3047C136.263 25.6224 136.727 25.0938 137.32 24.7188C137.914 24.3438 138.604 24.1562 139.391 24.1562C140.182 24.1562 140.875 24.3438 141.469 24.7188C142.062 25.0938 142.526 25.6224 142.859 26.3047C143.193 26.9818 143.359 27.776 143.359 28.6875C143.359 29.5833 143.193 30.3698 142.859 31.0469C142.526 31.724 142.062 32.25 141.469 32.625C140.875 33 140.182 33.1875 139.391 33.1875ZM139.391 31.9844C139.995 31.9844 140.49 31.8307 140.875 31.5234C141.26 31.2161 141.547 30.8125 141.734 30.3125C141.922 29.8073 142.016 29.2656 142.016 28.6875C142.016 28.099 141.922 27.5521 141.734 27.0469C141.547 26.5417 141.26 26.1354 140.875 25.8281C140.49 25.5156 139.995 25.3594 139.391 25.3594C138.797 25.3594 138.307 25.5156 137.922 25.8281C137.536 26.1354 137.25 26.5417 137.062 27.0469C136.875 27.5521 136.781 28.099 136.781 28.6875C136.781 29.2656 136.875 29.8073 137.062 30.3125C137.25 30.8125 137.536 31.2161 137.922 31.5234C138.307 31.8307 138.797 31.9844 139.391 31.9844ZM148.531 24.2656V25.4062H143.828V24.2656H148.531ZM145.234 33V23.0625C145.234 22.5625 145.352 22.1458 145.586 21.8125C145.826 21.4792 146.133 21.2292 146.508 21.0625C146.883 20.8958 147.276 20.8125 147.688 20.8125C148.021 20.8125 148.292 20.8411 148.5 20.8984C148.714 20.9505 148.87 21 148.969 21.0469L148.578 22.2031C148.51 22.1771 148.417 22.1484 148.297 22.1172C148.182 22.0807 148.026 22.0625 147.828 22.0625C147.385 22.0625 147.062 22.1771 146.859 22.4062C146.661 22.6302 146.562 22.9583 146.562 23.3906V33H145.234ZM154.078 33H152.594L156.875 21.3594H158.328L162.594 33H161.125L157.641 23.2031H157.547L154.078 33ZM154.625 28.4531H160.578V29.7031H154.625V28.4531ZM164.812 21.3594V33H163.484V21.3594H164.812ZM166.531 36.2656V24.2656H167.812V25.6562H167.969C168.068 25.5052 168.206 25.3125 168.383 25.0781C168.56 24.8385 168.815 24.625 169.148 24.4375C169.482 24.25 169.932 24.1562 170.5 24.1562C171.234 24.1562 171.88 24.3411 172.438 24.7109C172.995 25.0755 173.43 25.5964 173.742 26.2734C174.06 26.9453 174.219 27.7396 174.219 28.6562C174.219 29.5781 174.062 30.3802 173.75 31.0625C173.438 31.7396 173.003 32.263 172.445 32.6328C171.888 33.0026 171.245 33.1875 170.516 33.1875C169.958 33.1875 169.51 33.0938 169.172 32.9062C168.833 32.7135 168.573 32.4974 168.391 32.2578C168.208 32.013 168.068 31.8125 167.969 31.6562H167.859V36.2656H166.531ZM170.344 31.9844C170.901 31.9844 171.367 31.8359 171.742 31.5391C172.117 31.237 172.398 30.8333 172.586 30.3281C172.779 29.8229 172.875 29.2604 172.875 28.6406C172.875 28.026 172.781 27.4714 172.594 26.9766C172.406 26.4818 172.125 26.0885 171.75 25.7969C171.38 25.5052 170.911 25.3594 170.344 25.3594C169.797 25.3594 169.339 25.4974 168.969 25.7734C168.599 26.0443 168.318 26.4271 168.125 26.9219C167.938 27.4115 167.844 27.9844 167.844 28.6406C167.844 29.2969 167.94 29.8776 168.133 30.3828C168.326 30.8828 168.607 31.276 168.977 31.5625C169.352 31.8438 169.807 31.9844 170.344 31.9844ZM176.844 27.75V33H175.516V21.3594H176.844V25.6406H176.969C177.172 25.1875 177.477 24.8281 177.883 24.5625C178.294 24.2917 178.844 24.1562 179.531 24.1562C180.125 24.1562 180.646 24.276 181.094 24.5156C181.542 24.75 181.891 25.112 182.141 25.6016C182.391 26.0859 182.516 26.7031 182.516 27.4531V33H181.172V27.5469C181.172 26.849 180.992 26.3099 180.633 25.9297C180.273 25.5495 179.776 25.3594 179.141 25.3594C178.698 25.3594 178.305 25.4531 177.961 25.6406C177.617 25.8281 177.344 26.099 177.141 26.4531C176.943 26.8073 176.844 27.2396 176.844 27.75ZM186.797 33.2031C186.245 33.2031 185.742 33.099 185.289 32.8906C184.836 32.6771 184.477 32.3698 184.211 31.9688C183.945 31.5677 183.812 31.0833 183.812 30.5156C183.812 30.0156 183.911 29.612 184.109 29.3047C184.307 28.9922 184.57 28.7474 184.898 28.5703C185.232 28.388 185.596 28.2526 185.992 28.1641C186.393 28.0755 186.797 28.0052 187.203 27.9531C187.734 27.8854 188.164 27.8333 188.492 27.7969C188.826 27.7604 189.068 27.6979 189.219 27.6094C189.375 27.5208 189.453 27.3698 189.453 27.1562V27.1094C189.453 26.5521 189.299 26.1198 188.992 25.8125C188.69 25.5 188.229 25.3438 187.609 25.3438C186.974 25.3438 186.474 25.4844 186.109 25.7656C185.745 26.0417 185.49 26.3385 185.344 26.6562L184.062 26.2031C184.292 25.6719 184.596 25.2578 184.977 24.9609C185.362 24.6641 185.779 24.4557 186.227 24.3359C186.68 24.2161 187.125 24.1562 187.562 24.1562C187.844 24.1562 188.167 24.1901 188.531 24.2578C188.896 24.3203 189.25 24.4557 189.594 24.6641C189.943 24.8672 190.229 25.1771 190.453 25.5938C190.682 26.0052 190.797 26.5573 190.797 27.25V33H189.453V31.8125H189.391C189.302 32 189.151 32.2031 188.938 32.4219C188.724 32.6354 188.44 32.8203 188.086 32.9766C187.737 33.1276 187.307 33.2031 186.797 33.2031ZM187 32C187.531 32 187.979 31.8958 188.344 31.6875C188.708 31.4792 188.984 31.2109 189.172 30.8828C189.359 30.5495 189.453 30.2031 189.453 29.8438V28.6094C189.396 28.6771 189.271 28.7396 189.078 28.7969C188.891 28.849 188.672 28.8958 188.422 28.9375C188.177 28.9792 187.938 29.0156 187.703 29.0469C187.469 29.0729 187.281 29.0938 187.141 29.1094C186.792 29.1562 186.466 29.2318 186.164 29.3359C185.862 29.4349 185.617 29.5833 185.43 29.7812C185.247 29.9792 185.156 30.25 185.156 30.5938C185.156 31.0573 185.328 31.4089 185.672 31.6484C186.021 31.8828 186.464 32 187 32ZM200.125 33.2031C199.292 33.2031 198.57 33.0703 197.961 32.8047C197.352 32.5339 196.872 32.1589 196.523 31.6797C196.18 31.1953 195.984 30.6354 195.938 30H197.391C197.432 30.4375 197.581 30.7995 197.836 31.0859C198.096 31.3724 198.427 31.5859 198.828 31.7266C199.229 31.8672 199.661 31.9375 200.125 31.9375C200.661 31.9375 201.143 31.849 201.57 31.6719C202.003 31.4948 202.344 31.2474 202.594 30.9297C202.844 30.612 202.969 30.2396 202.969 29.8125C202.969 29.4271 202.859 29.1146 202.641 28.875C202.422 28.6354 202.135 28.4401 201.781 28.2891C201.432 28.138 201.052 28.0052 200.641 27.8906L199.219 27.4844C198.307 27.224 197.586 26.8516 197.055 26.3672C196.529 25.8776 196.266 25.2396 196.266 24.4531C196.266 23.8021 196.44 23.2344 196.789 22.75C197.143 22.2604 197.62 21.8802 198.219 21.6094C198.823 21.3385 199.495 21.2031 200.234 21.2031C200.984 21.2031 201.651 21.3385 202.234 21.6094C202.818 21.875 203.281 22.2396 203.625 22.7031C203.969 23.1615 204.151 23.6823 204.172 24.2656H202.797C202.729 23.6927 202.453 23.2474 201.969 22.9297C201.49 22.612 200.896 22.4531 200.188 22.4531C199.677 22.4531 199.229 22.5365 198.844 22.7031C198.458 22.8698 198.159 23.099 197.945 23.3906C197.732 23.6823 197.625 24.0156 197.625 24.3906C197.625 24.8021 197.753 25.1354 198.008 25.3906C198.263 25.6406 198.565 25.8359 198.914 25.9766C199.268 26.1172 199.589 26.2292 199.875 26.3125L201.047 26.6406C201.349 26.724 201.685 26.8359 202.055 26.9766C202.43 27.1172 202.789 27.3073 203.133 27.5469C203.482 27.7865 203.768 28.0938 203.992 28.4688C204.216 28.8385 204.328 29.2969 204.328 29.8438C204.328 30.4688 204.164 31.0365 203.836 31.5469C203.508 32.0521 203.031 32.4557 202.406 32.7578C201.781 33.0547 201.021 33.2031 200.125 33.2031ZM209.25 33.1875C208.438 33.1875 207.734 32.9948 207.141 32.6094C206.552 32.2188 206.096 31.6849 205.773 31.0078C205.456 30.3307 205.297 29.5573 205.297 28.6875C205.297 27.7969 205.461 27.013 205.789 26.3359C206.117 25.6536 206.576 25.1198 207.164 24.7344C207.758 24.349 208.448 24.1562 209.234 24.1562C209.849 24.1562 210.401 24.2708 210.891 24.5C211.385 24.724 211.789 25.0417 212.102 25.4531C212.419 25.8646 212.615 26.3438 212.688 26.8906H211.344C211.276 26.625 211.154 26.375 210.977 26.1406C210.799 25.9062 210.565 25.7188 210.273 25.5781C209.987 25.4323 209.646 25.3594 209.25 25.3594C208.729 25.3594 208.273 25.4948 207.883 25.7656C207.492 26.0365 207.188 26.4193 206.969 26.9141C206.75 27.4036 206.641 27.9792 206.641 28.6406C206.641 29.3125 206.747 29.901 206.961 30.4062C207.174 30.9062 207.477 31.2943 207.867 31.5703C208.263 31.8464 208.724 31.9844 209.25 31.9844C209.776 31.9844 210.227 31.849 210.602 31.5781C210.977 31.3021 211.224 30.9271 211.344 30.4531H212.688C212.615 30.9688 212.427 31.4323 212.125 31.8438C211.828 32.2552 211.435 32.5833 210.945 32.8281C210.461 33.0677 209.896 33.1875 209.25 33.1875ZM215.281 27.75V33H213.953V21.3594H215.281V25.6406H215.406C215.609 25.1875 215.914 24.8281 216.32 24.5625C216.732 24.2917 217.281 24.1562 217.969 24.1562C218.562 24.1562 219.083 24.276 219.531 24.5156C219.979 24.75 220.328 25.112 220.578 25.6016C220.828 26.0859 220.953 26.7031 220.953 27.4531V33H219.609V27.5469C219.609 26.849 219.43 26.3099 219.07 25.9297C218.711 25.5495 218.214 25.3594 217.578 25.3594C217.135 25.3594 216.742 25.4531 216.398 25.6406C216.055 25.8281 215.781 26.099 215.578 26.4531C215.38 26.8073 215.281 27.2396 215.281 27.75ZM226.203 33.1875C225.417 33.1875 224.727 33 224.133 32.625C223.539 32.25 223.076 31.724 222.742 31.0469C222.414 30.3698 222.25 29.5833 222.25 28.6875C222.25 27.776 222.414 26.9818 222.742 26.3047C223.076 25.6224 223.539 25.0938 224.133 24.7188C224.727 24.3438 225.417 24.1562 226.203 24.1562C226.995 24.1562 227.688 24.3438 228.281 24.7188C228.875 25.0938 229.339 25.6224 229.672 26.3047C230.005 26.9818 230.172 27.776 230.172 28.6875C230.172 29.5833 230.005 30.3698 229.672 31.0469C229.339 31.724 228.875 32.25 228.281 32.625C227.688 33 226.995 33.1875 226.203 33.1875ZM226.203 31.9844C226.807 31.9844 227.302 31.8307 227.688 31.5234C228.073 31.2161 228.359 30.8125 228.547 30.3125C228.734 29.8073 228.828 29.2656 228.828 28.6875C228.828 28.099 228.734 27.5521 228.547 27.0469C228.359 26.5417 228.073 26.1354 227.688 25.8281C227.302 25.5156 226.807 25.3594 226.203 25.3594C225.609 25.3594 225.12 25.5156 224.734 25.8281C224.349 26.1354 224.062 26.5417 223.875 27.0469C223.688 27.5521 223.594 28.099 223.594 28.6875C223.594 29.2656 223.688 29.8073 223.875 30.3125C224.062 30.8125 224.349 31.2161 224.734 31.5234C225.12 31.8307 225.609 31.9844 226.203 31.9844ZM235 33.1875C234.214 33.1875 233.523 33 232.93 32.625C232.336 32.25 231.872 31.724 231.539 31.0469C231.211 30.3698 231.047 29.5833 231.047 28.6875C231.047 27.776 231.211 26.9818 231.539 26.3047C231.872 25.6224 232.336 25.0938 232.93 24.7188C233.523 24.3438 234.214 24.1562 235 24.1562C235.792 24.1562 236.484 24.3438 237.078 24.7188C237.672 25.0938 238.135 25.6224 238.469 26.3047C238.802 26.9818 238.969 27.776 238.969 28.6875C238.969 29.5833 238.802 30.3698 238.469 31.0469C238.135 31.724 237.672 32.25 237.078 32.625C236.484 33 235.792 33.1875 235 33.1875ZM235 31.9844C235.604 31.9844 236.099 31.8307 236.484 31.5234C236.87 31.2161 237.156 30.8125 237.344 30.3125C237.531 29.8073 237.625 29.2656 237.625 28.6875C237.625 28.099 237.531 27.5521 237.344 27.0469C237.156 26.5417 236.87 26.1354 236.484 25.8281C236.099 25.5156 235.604 25.3594 235 25.3594C234.406 25.3594 233.917 25.5156 233.531 25.8281C233.146 26.1354 232.859 26.5417 232.672 27.0469C232.484 27.5521 232.391 28.099 232.391 28.6875C232.391 29.2656 232.484 29.8073 232.672 30.3125C232.859 30.8125 233.146 31.2161 233.531 31.5234C233.917 31.8307 234.406 31.9844 235 31.9844ZM241.594 21.3594V33H240.266V21.3594H241.594Z" fill="white"/>
<defs>
<clipPath id="clip0_4837_974">
<rect width="104" height="35" fill="white"/>
</clipPath>
</defs>
</svg>
